Coordinates
version=1
nRows=10
nColumns=40
inDegrees=yes

Units are S.I. units (second, meters, Newtons, ...)
Angles are in degrees.

endheader
time	pelvis_tilt	pelvis_list	pelvis_rotation	pelvis_tx	pelvis_ty	pelvis_tz	hip_flexion_r	hip_adduction_r	hip_rotation_r	knee_angle_r	knee_angle_r_beta	ankle_angle_r	subtalar_angle_r	mtp_angle_r	hip_flexion_l	hip_adduction_l	hip_rotation_l	knee_angle_l	knee_angle_l_beta	ankle_angle_l	subtalar_angle_l	mtp_angle_l	lumbar_extension	lumbar_bending	lumbar_rotation	arm_flex_r	arm_add_r	arm_rot_r	elbow_flex_r	pro_sup_r	wrist_flex_r	wrist_dev_r	arm_flex_l	arm_add_l	arm_rot_l	elbow_flex_l	pro_sup_l	wrist_flex_l	wrist_dev_l
     45.02000000	     -3.41780741	     -4.26446514	      0.37077044	      1.08965897	      0.91894892	      0.43524111	     10.82470771	     -8.00427505	     -1.67060834	     42.66732046	     42.66732046	      6.36070017	     -1.95819718	    -24.72298877	     20.02419021	     -4.52868877	     -0.55178810	     31.99535121	     31.99535121	     16.99935880	    -16.35122606	      5.77797877	     -9.46205479	      7.78439550	      3.75010771	     22.16211704	    -12.61374883	     -7.20305297	     31.66995541	     45.45787939	      0.00000000	      0.00000000	     22.18783791	    -13.40732776	     14.64335417	     42.42168058	     45.25242367	      0.00000000	      0.00000000
     45.04050000	     -3.38797192	     -4.22047497	     -0.12784763	      1.08835662	      0.91727691	      0.43257725	     13.64614305	     -8.08505321	     -0.40764076	     47.40653273	     47.40653273	      4.10223754	     -4.27522596	    -24.73380368	     20.06593537	     -4.42057375	     -0.96341957	     32.71279508	     32.71279508	     17.60782814	    -16.49347926	      5.55829706	     -9.63702921	      7.90295699	      3.53429337	     18.35637608	    -12.68566831	     -7.16681132	     30.05169453	     45.50637843	      0.00000000	      0.00000000	     24.17935800	    -14.15517564	     13.88654950	     44.27442311	     45.37276613	      0.00000000	      0.00000000
     45.06100000	     -3.32521089	     -4.17220465	     -0.64903245	      1.08713095	      0.91578854	      0.43007132	     16.28913054	     -8.04638258	      0.80169294	     51.79234383	     51.79234383	      1.78253389	     -6.48126061	    -24.11881568	     20.02697612	     -4.33958420	     -1.43845419	     33.37442832	     33.37442832	     18.21164166	    -16.56263900	      5.39515974	     -9.88787748	      8.01703995	      3.34645903	     14.47895931	    -12.78666159	     -7.14787445	     28.36588574	     45.55884995	      0.00000000	      0.00000000	     26.12318108	    -14.96887143	     12.93782378	     46.39194409	     45.51420176	      0.00000000	      0.00000000
     45.08150000	     -3.25799838	     -4.10971571	     -1.18844692	      1.08604526	      0.91462740	      0.42775148	     18.71168446	     -7.96517393	      1.83792925	     55.67810281	     55.67810281	     -0.29441628	     -8.25668812	    -22.74415627	     19.86671796	     -4.25649594	     -1.95695323	     33.84426932	     33.84426932	     18.75777835	    -16.58448930	      5.28206566	    -10.14256826	      8.12733042	      3.12325381	     10.64359242	    -12.87638809	     -7.17727460	     26.70070895	     45.61412606	      0.00000000	      0.00000000	     28.02587252	    -15.84388609	     11.85264082	     48.51492117	     45.66576324	      0.00000000	      0.00000000
     45.10200000	     -3.19914580	     -3.99387018	     -1.74952165	      1.08508998	      0.91396156	      0.42575994	     20.89316249	     -7.92056659	      2.67777882	     58.94744711	     58.94744711	     -2.02300690	     -9.65315129	    -21.00418814	     19.55643499	     -4.12841509	     -2.52267751	     34.03646905	     34.03646905	     19.20236549	    -16.59739556	      5.19412704	    -10.36111469	      8.17083398	      2.80335812	      7.00742192	    -12.88111633	     -7.24305956	     25.20418167	     45.66238004	      0.00000000	      0.00000000	     29.90594555	    -16.83346150	     10.79974333	     50.29936039	     45.80417508	      0.00000000	      0.00000000
     45.12250000	     -3.09824455	     -4.06612504	     -2.32672106	      1.08438736	      0.91406152	      0.42427650	     22.83496946	     -7.67097199	      3.20668835	     61.85263588	     61.85263588	     -1.27472252	     -9.13025463	    -13.22955574	     19.07697430	     -4.24404225	     -3.09766993	     34.03029254	     34.03029254	     19.65724100	    -16.43487406	      5.33865103	    -10.70029875	      8.42447528	      2.12092230	      3.53531784	    -12.85863852	     -7.90979908	     24.39301726	     45.80052002	      0.00000000	      0.00000000	     30.56147770	    -17.94109766	      7.39192552	     54.38873080	     46.19694516	      0.00000000	      0.00000000
     45.14300000	     -3.01695038	     -4.11462510	     -2.88623338	      1.08387803	      0.91493018	      0.42318769	     24.20676649	     -7.60253776	      3.32859767	     63.29319831	     63.29319831	     -2.28707548	     -9.86743461	    -12.61276184	     18.38892809	     -4.29032178	     -3.56923965	     33.59329752	     33.59329752	     19.81928878	    -16.46921419	      5.41221862	    -10.84505878	      8.63727326	      1.42685870	      0.41964290	    -12.91671890	     -7.98867879	     23.20866275	     45.83406707	      0.00000000	      0.00000000	     32.30433592	    -19.46280448	      6.63630667	     55.10771323	     46.28450977	      0.00000000	      0.00000000
     45.16350000	     -3.09716411	     -4.14295231	     -3.67794934	      1.08334319	      0.91621014	      0.42305317	     25.76415260	     -7.18989708	      3.82291461	     64.47889759	     64.47889759	     -0.93740254	    -10.02485807	     -6.17965466	     17.69309830	     -4.46195982	     -4.40685790	     32.86009835	     32.86009835	     19.76619928	    -16.29496439	      5.18394194	    -10.99186364	      8.73312011	      1.54592180	     -3.26226300	    -12.92473723	     -8.88297900	     23.46711560	     45.94268637	      0.00000000	      0.00000000	     33.16291228	    -19.91512195	      3.70809820	     58.84176943	     46.60661028	      0.00000000	      0.00000000
     45.18400000	     -3.19871891	     -4.24192669	     -4.45832662	      1.08291675	      0.91812700	      0.42344016	     26.79936021	     -6.85114030	      3.91694157	     64.31622013	     64.31622013	     -0.59096867	    -10.64094292	     -5.05723610	     16.86733541	     -4.67873567	     -5.13239179	     31.84571566	     31.84571566	     19.62649761	    -16.20938422	      5.30015968	    -11.00766715	      8.89005847	      1.50443394	     -6.29589436	    -12.93253264	     -9.22589807	     22.92620548	     46.00177592	      0.00000000	      0.00000000	     34.53727854	    -20.88245882	      2.46764260	     60.61031277	     46.75073833	      0.00000000	      0.00000000
     45.20450000	     -3.48923369	     -4.41852327	     -5.25911320	      1.08234182	      0.92015302	      0.42442122	     27.73650692	     -6.49818080	      3.73258381	     63.23408619	     63.23408619	      0.00684742	    -10.93346369	     -4.99548113	     16.23212712	     -4.99473188	     -5.76149875	     30.81086535	     30.81086535	     19.49191468	    -16.17934359	      5.60255776	    -10.76043955	      9.12041740	      1.14611803	     -8.71782386	    -12.92364250	     -9.32948302	     22.18499511	     46.02272970	      0.00000000	      0.00000000	     35.97609589	    -22.35987783	      1.73364723	     61.30082862	     46.82905923	      0.00000000	      0.00000000
